<?xml version="1.0" ?><!DOCTYPE svg  PUBLIC '-//W3C//DTD SVG 1.1//EN'  'http://www.w3.org/Graphics/SVG/1.1/DTD/svg11.dtd'><svg enable-background="new 20.2 0.5 449 508" height="508" version="1.1" viewBox="20.2 0.5 449 508" width="449" xml:space="preserve" xmlns="http://www.w3.org/2000/svg" xmlns:xlink="http://www.w3.org/1999/xlink"><defs/><ellipse cx="239.6" cy="488.9" opacity="0.39" rx="202.5" ry="18.8"/><path d="M400,327.8c4.7,2.4,10.4,1.9,15.7,2.5  c6.1,0.8,12.1,2.4,18.2,3.1c3.4,0.4,8.2-1,10,1.9c1.9,2.9-1.4,7.6-4.4,9.4c-5.1,3.1-11.1,4.4-17,5.7c-2.7,0.6-5.4,0.9-8.2,1.3  c-0.8,0.1-2.3-0.8-2.5,0c-0.3,1,1.3,1.6,1.9,2.5c0.5,0.8,1.1,1.6,1.3,2.5c0.2,1,0.2,2.1,0,3.1c-0.2,0.9-0.5,1.9-1.3,2.5  c-2.1,1.7-5.9,1.6-8.2,0c-5.2-3.7-8.1-9.9-11.9-15.1" fill="#FFFFFF" stroke="#000000" stroke-linejoin="round" stroke-width="9"/><g><defs><path d="M348.8,409.8c9.7,23.7,19.3,47.3,24.1,60.6c4.7,13.3,4.5,16.3,5.9,17.7c1.4,1.4,4.3,1.3,7.7-1    c3.3-2.3,7-6.9,10-11.7c2.9-4.8,5.1-9.9,4.8-17.7c-0.3-7.8-3.2-18.2-6-27.3c-2.8-9.1-5.6-16.8-8.4-24.7    c-2.9-7.8-5.8-15.7-8.7-23.6" id="XMLID_1776_"/></defs><use fill="#FFFFFF" xlink:href="#XMLID_1776_"/><clipPath id="XMLID_1837_"><use xlink:href="#XMLID_1776_"/></clipPath><path clip-path="url(#XMLID_1837_)" d="M355.6,442c3.6,1.1,7.4-0.7,11-1.7c6.5-1.7,13.2-4.2,18.4-8.6c2.9-2.5,5.1-5.5,7.7-8.3   c0.6-0.6,1.1-1.2,1.7-1.8c0.6-0.6,0.9-1.8,1.7-1.8c2.8-0.1,3.4,4.7,4.2,7.4c1.2,3.8,2.7,7.6,3.9,11.4c2.1,6.6,2.3,13.8,2,20.8   c-0.3,9.4-1,19.9-6.6,27.3c-4.2,5.4-12.3,10.1-18.8,8.2c-6.3-1.9-9.8-9.4-12.1-15.6c-3.3-9-13.5-18.9-8.9-27.2"/><path clip-path="url(#XMLID_1837_)" d="M367.6,467c2.8-2.9,7.5-4.7,11.4-3.9c0.8,0.2,1.5,0.8,2.3,1.3   c0.8,0.4,1.4,1.2,2.3,1.3c0.9,0.1,1.8-0.6,2.6-1c0.8-0.4,1.5-0.9,2.2-1.4c3.2-2.7,6.6-5.2,9.5-8.3c0.6-0.6,1.1-1.2,1.7-1.8   c0.6-0.6,1.2-1.2,1.7-1.8c0.5-0.7,0.5-2.6,1.3-2.3c1,0.4,0.5,2,0.5,3.1c0,1-0.2,2.1-0.3,3.1c-0.1,1.3-0.2,2.7-0.3,4   c-0.1,1.3-0.3,2.7-0.3,4c-0.2,8.3-4.4,17.2-10.8,22.6c-3.8,3.1-9.9,3.2-14.6,1.8" fill="#858585"/><use fill="none" stroke="#000000" stroke-linejoin="round" stroke-width="5" xlink:href="#XMLID_1776_"/></g><g><defs><path d="M298.9,409.4c-10.7,23.2-21.3,46.5-27.8,59c-6.5,12.6-8.8,14.4-8.9,16.4c-0.1,2,2,4.1,6,4.9    c4,0.8,9.8,0.4,15.4-0.7c5.5-1.2,10.8-3,16.2-8.6c5.4-5.5,11.1-14.8,15.8-23s8.5-15.6,12.2-23c3.8-7.4,7.5-15,11.3-22.5" id="XMLID_1775_"/></defs><use fill="#FFFFFF" xlink:href="#XMLID_1775_"/><clipPath id="XMLID_1838_"><use xlink:href="#XMLID_1775_"/></clipPath><path clip-path="url(#XMLID_1838_)" d="M280.1,436.4c1.7,3.3,5.6,4.9,8.8,6.9c5.7,3.6,12.1,6.8,18.8,7.5c3.7,0.4,7.5,0,11.3,0   c0.8,0,1.7,0,2.5,0s1.9-0.6,2.5,0c2,2-1.1,5.7-2.5,8.2c-2,3.5-3.7,7.2-5.7,10.7c-3.4,6.1-8.6,11.1-13.8,15.7   c-7.1,6.2-15.2,12.9-24.5,13.8c-6.8,0.7-15.8-2-18.8-8.2c-2.9-5.9,0.2-13.6,3.1-19.5c4.3-8.5,4.5-22.8,13.8-25.1"/><path clip-path="url(#XMLID_1838_)" d="M270.1,462.1c4,0,8.5,2.2,10.7,5.7c0.5,0.7,0.4,1.7,0.6,2.5   c0.2,0.8,0.1,1.8,0.6,2.5c0.6,0.7,1.6,0.9,2.5,1.3c0.8,0.3,1.7,0.5,2.5,0.6c4.2,0.5,8.4,1.3,12.6,1.3c0.8,0,1.7,0,2.5,0   c0.8,0,1.7,0.1,2.5,0c0.9-0.1,2.2-1.4,2.5-0.6c0.3,1-1.1,1.8-1.9,2.5c-0.7,0.7-1.7,1.2-2.5,1.9c-1.1,0.8-2.1,1.7-3.1,2.5   c-1,0.8-2.1,1.6-3.1,2.5c-6.2,5.5-15.6,8.6-23.9,7.5c-4.9-0.6-9.1-5-11.3-9.4" fill="#858585"/><use fill="none" stroke="#000000" stroke-linejoin="round" stroke-width="5" xlink:href="#XMLID_1775_"/></g><g><defs><path d="M370.5,353.5l34.5,1.3c-3.8,10.3-7.5,20.5-14.9,29.4c-7.3,8.9-18.2,16.4-29.3,22.4    c-11.1,6-22.4,10.4-33.4,11.1c-11,0.7-21.7-2.2-29.6-5.9c-8-3.7-13.2-8.1-18.4-12.5l17.6-18.2l17.6-20.1l11.9-2.5L346,356    l20.1-1.9L370.5,353.5z" id="XMLID_1774_"/></defs><use fill="#D6DAE5" xlink:href="#XMLID_1774_"/><clipPath id="XMLID_1839_"><use xlink:href="#XMLID_1774_"/></clipPath><line clip-path="url(#XMLID_1839_)" fill="#D6DAE5" stroke="#000000" stroke-linejoin="round" stroke-width="2" x1="318.4" x2="297.1" y1="382.4" y2="422.6"/><line clip-path="url(#XMLID_1839_)" fill="#D6DAE5" stroke="#000000" stroke-linejoin="round" stroke-width="2" x1="333.5" x2="332.8" y1="371.7" y2="425.1"/><line clip-path="url(#XMLID_1839_)" fill="#D6DAE5" stroke="#000000" stroke-linejoin="round" stroke-width="2" x1="344.1" x2="365.5" y1="368" y2="409.4"/><line clip-path="url(#XMLID_1839_)" fill="#D6DAE5" stroke="#000000" stroke-linejoin="round" stroke-width="2" x1="353.6" x2="396.9" y1="360.4" y2="384.9"/><use fill="none" stroke="#000000" stroke-linejoin="round" stroke-width="5" xlink:href="#XMLID_1774_"/></g><path d="M331.2,138.9c0.9-2.7,1.8-5.5,2.7-8.2l-0.5-0.8c0.4-0.3,0.8-0.6,1.1-1c3.9-11.5,8.2-22.4,14-31c7.4-11,17.4-18,29.1-20.3  c11.7-2.3,25.3,0,36.6,5.6c11.3,5.6,20.4,14.3,27,28c6.6,13.7,10.7,32.3,13.2,47.4c2.5,15.2,3.5,26.9,5.5,46.8  c2,19.9,5.2,47.9,8.3,75.8c-6.4-17.3-12.9-34.6-18.9-49.8c-5.1-12.8-9.9-24.1-15.2-35.3c-1.7,4.9-3.4,9.6-5.1,14  c-5.6,14.3-10.8,24.9-19.3,43c-8.4,18.1-20.1,43.7-31.8,69.4c3.3-18.1,6.7-36.3,9.3-52.4c2.6-16.2,4.5-30.3,5.8-45  c1.3-14.7,2.2-30,1.3-42.4c-0.9-12.4-3.5-21.9-8.2-27c-4.6-5.1-11.3-5.9-18.2-6.2c-6.8-0.2-13.8,0-20.8,0.3l-3.7-5.3L331.2,138.9z"/><path d="M182.7,84.8c8,9.3,14.3,22.2,20.4,35.4c1,1,2,1.9,3,2.9l-14.8,19.1c-7-0.6-13.9-1.3-20.8-1.4c-6.8-0.1-13.6,0.3-18.5,5.2  c-4.9,4.9-8,14.2-9.5,26.6c-1.5,12.3-1.5,27.6-0.9,42.4c0.6,14.8,1.7,29,3.5,45.3c1.8,16.3,4.2,34.6,6.6,52.9  c-10.3-26.2-20.7-52.4-28.2-70.9c-7.4-18.3-12-29-16.9-43.3c-3,9.6-5.9,19.3-8.8,30.1c-4.3,15.8-8.7,33.7-13.1,51.6  c-0.1-28.2-0.2-56.3-0.4-76.3c-0.3-20-0.7-31.7,0.1-47.1c0.8-15.3,2.7-34.3,7.7-48.6c5-14.3,13-24.1,23.7-30.9  c10.6-6.8,23.8-10.7,35.7-9.8C163.4,68.9,174.1,74.8,182.7,84.8z"/><path d="M352.9,205c-6.1,19.9-13.2,34.8-24.2,46.4  c-5.4,5.7-17.3,13.9-27.4,17.7c-30.2,11.4-38.5,9.4-57.4,8.1c-14.6-1.1-49.8-12.3-56.9-17.7c-4.4-3.3-6.6-10.1-5.9-15.6  c0.7-5.3,3.7-10,5.4-15c1.9-5.6,1.3-11.9,0.5-17.7c-1.3-10-6.5-19.3-11.8-27.9c-3.5-5.6-7.5-14.3-7.7-25.8  c-0.3-22.2,7.1-37.3,20.1-48.9c9.2-8.1,21.8-11.4,33.3-15.6c20.4-7.4,43.9-10.6,65-5.4c7.8,2,14.9,6.3,22,10.2  c12.4,6.9,24.6,15.1,33.3,26.3c2.6,3.3,3.9,7.4,5.4,11.3c3.2,8.4,6.6,16.9,7.5,25.8C355.2,174,357.5,188,352.9,205z" fill="#FFFFFF" stroke="#000000" stroke-linejoin="round" stroke-width="9"/><ellipse cx="193" cy="255.1" fill="#FFFFFF" rx="12.7" ry="6.8" stroke="#000000" stroke-linejoin="round" stroke-width="3"/><path d="M316.1,188.1c1.1,0,2.2,0.3,3.2,0c1.2-0.3,2.2-1,3.2-1.6c1.1-0.7,1.9-2.8,3.2-2.4c1.1,0.4-0.4,2.2-0.8,3.2  c-0.4,1.1-1.1,2.1-1.6,3.2"/><path d="M303.2,183.3c3.3,0,6.8-0.7,9.7-2.4c1.1-0.7,2.3-1.4,3.2-2.4c0.8-0.9,0.5-3.8,1.6-3.2c1.2,0.6,0.1,2.7,0,4  c-0.1,1.1-0.5,2.1-0.8,3.2"/><path d="M263.6,59.6c-8-5.6-16-11.3-21-18.1c-5-6.8-6.9-14.7-6.2-20.3c0.7-5.6,4.2-8.9,12.3-12.2c8.1-3.3,20.9-6.6,34-7.7  c13.1-1,26.4,0.2,39.8,1.5c-8.9,1.8-17.7,3.6-26.7,6.3c-9,2.6-18.1,6.1-23,10.8c-4.9,4.7-5.5,10.7-5.6,15.9  c-0.1,5.2,0.4,9.5,1.5,13.4c1.1,3.9,2.8,7.3,4.6,10.8"/><path d="M258.6,52.4c5.5,2.1,10.5,5.4,16.2,6.7c1.3,0.3,2.7,0.2,4.1,0c1.4-0.2,2.7-0.8,4.1-1  c12.4-1.5,25.4-1.9,37.5,1c12.6,3,25.6,9.8,32.5,20.1c4.8,7.3,9.1,15.4,10.1,23.9c1.5,12.8-3.4,25.5-5.1,38.4l0.2,0.6l0.9,2.9l0.9,3  l0.8,3l0.8,3l0.5,1.9l0.2,1.1l0.5,3l0.4,3l0.3,3l0.3,3l0.2,3l0.2,3l0.1,3l0,3l0,3l0,0.2l-0.4,2.8l-0.5,3l-0.5,3l-0.6,2.9l-0.7,2.9  l-0.7,2.9l-0.8,2.8l-0.9,2.8l-0.9,2.8l-0.3,0.8l-0.9,1.9l-1.3,2.6l-1.3,2.6l-1.4,2.5l-1.5,2.5l-0.8,1.2l-0.8,1.2l-0.8,1.2l-0.6,0.9  l-0.2,0.2l-0.9,1.1l-0.9,1.1l-0.9,1.1l-1,1.1l-1,1l-1,1l-1,1l-1,1l-1,0.9l-0.6,0.6l-0.4,0.3l-1.1,0.8l-1.2,0.8l-1.2,0.8l-1.2,0.8  l-1.2,0.7l-1.2,0.7l0.5-1.2l0.4-1.2l0.4-1.2l0.4-1.2l0.3-1.2l0.3-1.2l0.1-0.5l0.2-0.8l0.3-1.2l0.3-1.2l0.1-0.4l0,0l-1.1,1.9  l-1.1,1.9l-1.1,1.9l-1.1,1.8l-1.2,1.8l-0.7,1.1l-0.5,0.7l-1.4,1.7l-1.4,1.7l-1.4,1.6l-1.4,1.6l-1.5,1.6l-1.5,1.5l-0.7,0.8l-0.8,0.7  l-1.6,1.4l-1.7,1.4l-1.7,1.3l-1.7,1.3l0.6-1.9l0.6-1.9l0.5-1.9l0.5-1.9l0.2-1l0.2-1l0.4-1.9l0.4-1.9l0.4-1.9l0.3-1.9l0.3-1.9  l0.2-1.9l0.1-0.7l0.3-1.2l0.4-1.9l0.3-1.9l0.3-1.9l0.3-1.9l0.2-1.9l0.2-1.9l0.2-1.9l0.1-1.9l0.1-0.8l-0.3-1l-1.2-3.4l-1.3-3.4  l-0.6-1.4l-0.5-1.9l-1-3.3l-1.1-3.3l-1.2-3.3l-1.1-2.7l-0.2-0.5l-1.3-3.2l-1.3-3.2l-1.4-3.1l-1.5-3.1l-1.5-3l-1.6-3l-0.1-0.2  l-1.1-2.9l-1.2-3.1l-1.3-3l-1.3-3l-1.4-3l-1.5-2.9l-1.5-2.9l-0.4-0.6l-1.1-2.3l-0.7-1.5l-0.7-1.4l-0.7-1.4l-0.8-1.4l-0.8-1.4  l-0.8-1.4l-0.8-1.4l-0.8-1.4l-0.8-1.4l-0.9-1.4l-0.9-1.3l-0.9-1.3l-0.1-0.2l-0.7-1.2l-0.8-1.4l-0.8-1.4l-0.8-1.4l-1.7-2.7l-1.6-2.7  l-3.2-5.3l-1.6-2.6l-0.9-1.3l-0.6-1.3l-1.4-2.6l-0.7-1.3l-0.7-1.3l-0.7-1.2l-0.7-1.2l-0.8-1.2l-0.8-1.2l-0.6-0.8l-0.2-0.3l-0.7-1.3  l-0.7-1.3l-0.8-1.2l-0.8-1.2l-0.1-0.2l0.2,1.5l0.2,1.6l0.3,1.7l0.3,1.7l0.3,1.5l0,0.3l0.1,1.8l0.1,1.8l0.4,3.6l0.4,3.6l0.4,3.5  l0.4,3.4l0.3,2.6l0,0.6l-0.2,12.3l-0.1,6.2l0,3.3l-0.2,2.8l-0.2,3l-0.2,3l-0.2,3l-0.1,3l-0.1,3l0,2.9l0,0.8l-0.3,2.1l-0.3,2.9  l-0.3,2.9l-0.2,2.9l-0.1,2.9l-0.1,2.8l0,1.4l0,1.4l0,0.6l-0.1,0.9l-0.1,1.4l0,1.4l0,1.4l0,1.4l0,1.4l0,1.3l0.3,0.5l0.5,0.7l1.4,2.4  l1.9,3.2l1.9,3.1l1.5,2.3l0.5,0.9l1.9,3.3l2,3.3l-3.6-1.4l-3.7-1.5l-1-0.4l-2.1-0.9l0.1,0.8l0.2,1.6l0.3,1.6l0.3,1.6l0.4,1.6  l-1.4-0.9l-1.4-1l-1.4-1l-1.3-1l-0.8-0.7l-0.5-0.4l-1.3-1.1l-1.2-1.2l-1.2-1.2l-1.2-1.2l-1.2-1.3l-1.1-1.3l-0.8-1l-0.3-0.4l-0.9-1.4  l-0.6-1l-0.5-0.4l-1.6-1.2l-1.6-1.2l-1.6-1.2l-1.5-1.3l-0.3-0.3l-0.7-0.2l-2.1-0.7l-2.1-0.8l-1.3-0.5l-0.8-0.3l-2.1-0.9l-2.1-0.9  l-2.1-1l-2.1-1l-2.1-1l-0.3-0.1l-1.6-1.1l-1.8-1.3l-1.8-1.3l-1.8-1.4l-1.8-1.4l-1.8-1.4l-1.8-1.5l-1.1-1l-0.6-0.5l-1.7-1.5l-1.7-1.6  l-1.6-1.6l-1.6-1.6l-1.6-1.7l-1.6-1.7l-1.5-1.7l-1.5-1.8l-1.5-1.8l-1.4-1.8l-0.4-0.6l-0.8-1.4l-1.1-2l-1-2l-1-2.1l-0.9-2.1l-0.6-1.3  l-0.5-1.3l-0.5-1.3l-0.4-1.3l-0.4-1.3l-0.4-1.3l-0.3-1.3l-0.3-1.3l-0.3-1.3l-0.2-1.3l-0.2-1.3l-0.2-1.1l-0.2,1.1l-0.5,3.5l-0.3,2.1  l-0.3,1.3l-0.7,3.4l-0.7,3.4l-0.6,3.4l-0.6,3.3l-0.5,3.3l-0.4,3.3l-0.2,1.6l-0.1,1.6l0,0.2l-0.3,1.4l-0.3,1.6l-0.3,1.6l-0.2,1.6  l-0.2,1.6l-0.2,1.6l-0.2,1.6l-0.1,1.6l-0.1,1.6l-0.1,1.6l0,1.2l0,1.2l0,1.2l0.1,1.2l0.1,1.3l0,0.4l0,0.9l0,1.3l0.1,1.3l0.1,1.3  l0.1,1.3l0.1,1.3l0.2,1.3l0.2,1.3l0.2,1.3l0.2,1.3l0.3,1.4l0.3,1.4l0.1,0.7l0.1,0.7l0.5,2.8l0.6,2.8l0.6,2.8l0.7,2.8l0.1,0.4  l0.5,2.5l0.7,2.9l0.7,2.9l-2.5-1.9l-2.4-2l-2.1-1.8l-0.3-0.3l-2.3-2.2l-2.3-2.2l-2.2-2.3l-2.2-2.4l-0.5-0.5l-0.5-0.7l-0.9-1.3  l-0.9-1.3l-0.9-1.3l-0.8-1.4l-0.8-1.4l-0.8-1.4l-0.8-1.4l-0.8-1.4l-0.7-1.4l-0.7-1.5l-0.7-1.5l-0.3-0.6l-0.4-0.9l-0.6-1.5l-0.6-1.5  l-0.6-1.6l-0.5-1.6l-0.5-1.6l-0.6-2l-0.5-2l-0.5-2l-0.4-2l-0.4-2l-0.4-2l-0.3-2l-0.3-2l-0.3-2l0-0.1l0-1.9l0-2l0.1-2l0.2-3.9  l0.3-3.9l0.4-3.9l0.4-3.8l0.5-3.8l0.5-3.7l0.1-0.9l0.6-2.8l0.8-3.6l1.6-7.1l1.1-4.6l0.6-2.3l0.6-2.4l0.7-2.4l0.4-1.4l0.4-1l0.6-1.5  c-1.8,0.9-3.5,1.8-5.2,2.8c-8.2,4.8-16.5,9.8-23.3,16.3c-1.2,1.1-2,2.6-3,3.8c-1.3,1.6-2,4.1-4.1,4.8c-1.3,0.4,0.5-2.6,1-3.8  c0.5-1.3,1.5-2.5,2-3.8c1.5-3.8,2.3-7.8,4.1-11.5c5.2-11.1,11.4-22,19.3-31.6c13.6-16.5,29.8-33.6,50.7-40.2  C217.7,44.5,240.2,45.2,258.6,52.4z" stroke="#000000" stroke-width="0"/><path d="M352.1,115.3c9.4,5.6,16.9,14.6,22.1,24.2c8.4,15.3,12,37.4,3,52.3c-3.2,5.3-7.5,10-12.1,14.1c-1.4,1.3-2.1,4-4,4  c-1.5,0,1.3-2.7,2-4c0.7-1.3,1.5-2.6,2-4c2.6-6.9,2.8-14.8,2-22.1c-1-9.2-6.1-17.4-9.1-26.2c-4.5-13.5-10-27.3-19.1-38.2"/><path d="M239.4,84.1c2.2,8.8,0,18.3,2,27.2c2.2,9.7,9.3,17.5,14.1,26.2c8.2,14.8,19.6,28,32.2,39.3c7.5,6.7,16.3,13.1,26.2,15.1  c2,0.4,4.4,2.2,6,1c1.2-0.9-1.2-2.8-2-4c-1.2-1.8-2.7-3.4-4-5c-5.8-7.2-11-14.9-15.1-23.2c-9.9-19.8-22.7-37.9-33.2-57.4  c-5-9.3-10.1-19.6-10.1-30.2"/><path d="M256.5,56.9c9.5-9.5,23.8-15.1,37.2-15.1c10.7,0,21.4,8.1,27.2,17.1c1.1,1.7,3.9,3.3,3,5c-0.8,1.5-2.6-2.1-4-3  c-3.8-2.4-8.8-4.2-13.1-3c-9.5,2.6-17.2,10.1-24.2,17.1"/><ellipse cx="313.2" cy="251.6" fill="#FFFFFF" rx="12.7" ry="6.8" stroke="#000000" stroke-linejoin="round" stroke-width="3"/><path d="M275,337.5c5.2,11,9.9,22.2,13.9,33.7c1.1,3.2,2.7,6.2,3.7,9.3c0.8,2.4,2.2,7.9,2.1,7.3c-0.1-0.5,8.4,1.8,12.6,1.7  c4.4-0.1,9.3,0.4,13-2c0.9-0.6,1.2-1.8,1.5-2.8c0.2-0.9,0.1-1.9,0.1-2.8c-0.1-2.7,2.7-7.5,2.7-7.5l10.3,5.6c0,0,4.4-2.4,6.5-3.8  c6.2-4,13-7.1,18.8-11.7c3.4-2.6,6.7-5.5,10-8.2c2.1-1.7,4.4-6.9,4.4-6.9s-1.9-0.9-2.8-1.5c-0.8-0.5-1.5-1.1-2.2-1.7  c-1.9-1.8-3.3-4-4.9-6c-7.2-8.8-13.6-18.5-18.5-28.8"/><path d="M311.9,279.2c7,1.7,14.1,3.4,19.6,6.6c5.5,3.2,9.5,7.8,13.5,12.8c4,4.9,7.9,10.2,10.5,13.6c2.5,3.4,3.6,5,4.6,6.6  c-32.5,15.4-65,30.8-81.3,38.3c-16.3,7.6-16.4,7.3-16.5,7.1c-0.8-12.4-1.6-24.8-1.4-33.6c0.3-8.9,1.6-14.3,2.3-19.3  c0.7-5.1,0.8-9.9,3-14.3c2.2-4.5,6.5-8.6,11.9-11.1c5.5-2.6,12.1-3.6,18.7-4.7"/><path d="M285.8,314.7c2.2-6.5,1.4-17,6.8-19.5  c5.1-2.4,14.5,8,19.8,13.3" fill="#FFFFFF" stroke="#000000" stroke-linejoin="round" stroke-width="2"/><path d="M274.3,286.4c1.1-0.2,1.3,1.8,2.1,2.6  c3.6,3.5,8.2,7.5,13.2,7.1c7-0.6,7.2-12,11.2-17.8c0.6-0.9,1.8-1.4,2.9-1.4c1.5,0,2,3.4,3.4,3.8c4,1.1,3.3,20.1,1.9,27  c-1.6,8.1-0.9,16-2.5,24c-0.3,1.3-0.4,2.7-0.8,3.9c-0.5,1.3-1.4,2.3-1.9,3.6c-0.5,1.3,2,1.8,0.8,2.4c-3.2,1.5-2.5-3.9-4.4-6.9  c-4.2-6.6-10.4-14.1-14.6-20.7c-2.3-3.7-5.3-6.9-7.7-10.6c-0.6-0.9-0.9-1.9-1.4-2.9c-0.5-1-0.9-1.9-1.4-2.9c-0.5-1-0.9-1.9-1.4-2.9  c-0.5-1-1.4-1.8-1.4-2.9C272.5,289.8,272.4,286.7,274.3,286.4z" fill="#FFFFFF" stroke="#000000" stroke-linejoin="round" stroke-width="4"/><polyline fill="none" points="268.4,292.7 268.9,318.3 283.3,320.4   281.2,334.8 307.7,346 " stroke="#FFFFFF" stroke-linejoin="round" stroke-width="2"/><polyline fill="none" points="323.1,283.3 329.6,308.1 316.4,314   322.3,327.3 307.7,344.1 " stroke="#FFFFFF" stroke-linejoin="round" stroke-width="2"/><polygon points="286.5,302.7 297,298.4 302,302.1 297,309.6 308.6,321.5 306.5,342.9 290.8,319.7 292.2,312.4 287.2,308.8 "/><path d="M275.1,271.9c1.1,5.4,7.3,23.1,11.3,21.2  c2.9-1.4,8.3-0.4,10.2-3c2-2.9,1.2-3.9,0.2-7.2c-1.8-5.5,5.3-12.1,2.9-17.3" fill="#FFFFFF" stroke="#000000" stroke-linejoin="round" stroke-width="9"/><path d="M333.4,350.9c1.1-3.8,7.4-3.1,10.8-5.1  c3.1-1.8,5.8-5.4,9.4-5.1c2.6,0.2,3.8,3.7,4.9,6c1.1,2.3,2.8,5.4,1.5,7.6c-1.7,3-5.1,4.7-8,6.6c-2.9,1.8-6.7,3.7-9.9,2.6  s-4.3-5.3-6-8.3C335.3,353.7,332.9,352.5,333.4,350.9z" fill="none" stroke="#FFFFFF" stroke-linejoin="round" stroke-width="2"/><polyline points="331,287.6 369.3,309.6 410.7,325.9 405.1,345.4 392.5,354.8 341.6,322.1 "/><path d="M71.4,267h138c23.4,0,42.3,18.9,42.3,42.3v138  c0,23.4-18.9,42.3-42.3,42.3h-138c-23.4,0-42.3-18.9-42.3-42.3v-138C29.2,285.9,48.1,267,71.4,267z" fill="#D6DAE5" stroke="#000000" stroke-linejoin="round" stroke-width="16"/><circle cx="139.9" cy="382.3" fill="#FFFFFF" r="82.4" stroke="#000000" stroke-linejoin="round" stroke-width="16"/><polyline fill="none" points="136.1,333.7 135.4,388.1 82.2,391.7 " stroke="#000000" stroke-linejoin="round" stroke-width="16"/><g><defs><path d="M292.8,329.5c0.1,0.7,0.1,1.3,0.1,2l0.5,2.1l-0.8,0.5c-0.4,1.6-1,3-1.9,4.2c-1.7,2.4-4.3,4.2-6.8,4.7    c-2.5,0.5-4.9-0.3-7.2-1.1l-25,49.2l-3.4-2l2.4,3l-52-30.6l-2.4-16.7l0.8-0.4l28.2-38.9c-1.3-3.5-2.5-7-2.5-11.1    c0-4.1,1.4-8.7,3.3-11.4c2-2.6,4.6-3.3,7.1-3.1c2.5,0.2,4.8,1.2,13.7,5.1c8.9,4,24.5,10.9,33,16.2c8.5,5.3,10,8.8,10.3,12.1    c0.2,1.7,2.3,0.5,3.5,9C294.6,323.9,292.6,328.1,292.8,329.5z" id="XMLID_1773_"/></defs><use fill="#FFFFFF" xlink:href="#XMLID_1773_"/><clipPath id="XMLID_1840_"><use xlink:href="#XMLID_1773_"/></clipPath><path clip-path="url(#XMLID_1840_)" d="M279.8,302.5c6.6,4.2,9.1,16.3,5,22.8c-0.5,0.8-1.3,1.4-2,2   c-0.8,0.7-1.6,1.5-2.6,1.8c-4,1.2-9.6-3.1-12.5-0.2c-3.1,3.1-4.2,7.6-6.9,10.9c-6.1,7.6-9.9,19.6-14.1,28.4   c-1.9,3.9-6.6,3.3-8.9,6.9c-0.5,0.7-0.9,1.5-1.4,2.2c-0.5,0.7-1.5,1.3-1.4,2.2c0.1,0.9,1.3,1.4,2,2c0.8,0.8,1.7,1.4,2.6,2.2   c2.6,2.4,5.4,4.6,8.5,6.2c4.6,2.2,8.4-6.5,10.9-10.9c3.2-5.6,7.3-10.7,10.1-16.5c1.4-3,1.7-6.5,3.2-9.5c1.5-3.2,3.1-6.7,6.2-8.5   c3.5-2.1,8.4-1.1,11.7-3.4c2.9-2,6-4.8,6.8-8.3c1.4-7.1-2.4-14.6-6.4-20.6" fill="#D6DAE5"/><use fill="none" stroke="#000000" stroke-linejoin="round" stroke-width="6" xlink:href="#XMLID_1773_"/></g><polygon fill="#858585" points="198.2,346.8 246.2,373.4 247,388.9 200.2,362.7 "/><path d="M126.4,248.5c-6,1.3-13.4,0.6-17.6,5.1  c-5.8,6-1.8,18.6,3.6,24.9c3.4,4,9.5,8.3,14.3,6.2c3.6-1.6,3.6-9,7.5-9.2c3.7-0.2,6.3,4.8,10.1,5.1c3.7,0.2,4.6-7.1,8.2-7.4  c1.4-0.1,2.1,2,3.3,2.9c2.8,2.1,7.4,4.6,10.2,2.4c5.2-4,8.1-13,5.5-19.1c-0.6-1.5-2.1-2.6-3.2-3.7c-1-1-2.1-2-3.3-2.9  c-6.7-4.9-15.4-7.2-23.7-7.7C137.9,244.8,128.4,248.1,126.4,248.5z" fill="#FFFFFF" stroke="#000000" stroke-linejoin="round" stroke-width="9"/><path d="M132.9,275.2c-1.5-8.1-1.8-16.4-1.3-24.6" fill="none" stroke="#000000" stroke-linejoin="round" stroke-width="6"/><path d="M149.3,274.6c2.6-8.8,2.9-18.5,1.8-27.6" fill="none" stroke="#000000" stroke-linejoin="round" stroke-width="6"/><circle cx="279" cy="215.7" fill="#FFFFFF" r="16" stroke="#000000" stroke-linejoin="round" stroke-width="9"/><ellipse cx="206.6" cy="217.7" fill="#FFFFFF" rx="12.8" ry="15.7" stroke="#000000" stroke-linejoin="round" stroke-width="9"/><path d="M316.4,29.7c-4.6,10.3-13.1,29.4-17.1,42.6c-4.1,13.2-3.8,20.5,0.5,27.4  c4.3,6.9,12.4,13.4,20,13.6c7.6,0.3,14.6-5.6,17.8-14.8c3.2-9.1,2.6-21.5-0.6-35.7c-3.2-14.2-9-30.2-12.1-37.6  C321.6,18,321,19.4,316.4,29.7z" fill="#FFFFFF" stroke="#000000" stroke-width="8"/><polygon fill="#D6DAE5" points="237.5,251.2 256.2,248.5 265.6,280.4   238.1,284.3 " stroke="#000000" stroke-linejoin="round" stroke-width="3"/></svg>