<?xml version="1.0" standalone="no"?>
<!DOCTYPE svg PUBLIC "-//W3C//DTD SVG 20010904//EN"
 "http://www.w3.org/TR/2001/REC-SVG-20010904/DTD/svg10.dtd">
<svg version="1.0" xmlns="http://www.w3.org/2000/svg"
 width="512.000000pt" height="512.000000pt" viewBox="0 0 512.000000 512.000000"
 preserveAspectRatio="xMidYMid meet">

<g transform="translate(0.000000,512.000000) scale(0.100000,-0.100000)"
fill="#000000" stroke="none">
<path d="M1949 4636 c-2 -3 -204 -16 -449 -30 -471 -28 -712 -44 -745 -51 -30
-6 -54 -55 -144 -286 -43 -112 -152 -390 -240 -618 -183 -469 -175 -426 -99
-543 22 -35 129 -216 236 -403 107 -187 222 -383 257 -436 62 -95 62 -95 106
-97 161 -9 1437 63 1456 81 6 7 98 257 203 557 259 734 271 771 264 795 -9 29
-107 183 -344 545 -113 173 -229 352 -256 397 -27 46 -58 84 -69 87 -23 7
-170 8 -176 2z m213 -121 l37 -65 -39 -103 c-43 -113 -58 -181 -42 -191 16
-10 63 98 92 213 l12 44 20 -34 c19 -32 20 -35 4 -85 -18 -57 -20 -84 -7 -84
13 0 29 22 36 53 9 34 22 35 37 2 9 -21 8 -32 -7 -63 -27 -55 -45 -121 -35
-127 13 -8 48 42 62 86 6 22 14 39 17 39 5 0 218 -333 265 -416 20 -34 20 -34
-2 -79 -26 -54 -28 -75 -7 -75 9 0 24 18 34 42 17 41 18 41 32 20 14 -19 12
-28 -27 -109 -47 -99 -57 -138 -34 -138 9 0 30 35 55 92 22 51 42 93 45 93 3
0 11 -9 18 -20 10 -16 6 -35 -24 -117 -19 -54 -121 -341 -226 -638 -104 -297
-193 -543 -196 -547 -4 -4 -178 -16 -387 -28 -359 -19 -812 -51 -973 -69 -64
-6 -74 -5 -83 10 -14 27 -12 29 25 29 64 0 296 31 324 43 26 11 24 12 -28 15
-30 2 -119 -4 -198 -13 -138 -16 -144 -16 -157 1 -7 10 -11 22 -9 26 3 5 39 8
81 8 83 0 202 17 218 31 13 13 -152 11 -238 -2 -68 -11 -72 -10 -89 11 -28 34
-22 40 40 40 90 0 245 19 257 31 7 8 -30 10 -135 5 -80 -3 -156 -8 -170 -11
-21 -5 -28 0 -47 33 l-22 39 97 7 c53 4 105 12 116 18 20 11 20 11 -2 19 -12
5 -59 4 -104 -2 -46 -6 -92 -11 -103 -12 -16 -2 -54 60 -212 343 -106 190
-192 353 -193 362 0 10 7 33 16 51 l16 34 142 7 c144 8 236 21 236 36 0 15
-74 18 -214 8 -76 -5 -140 -7 -142 -5 -3 2 3 20 11 40 15 37 16 37 74 37 71 0
123 16 101 30 -8 6 -44 10 -79 10 -55 0 -63 2 -58 18 2 9 73 193 157 407 84
215 169 438 189 496 l36 106 170 7 c94 3 350 15 570 26 220 11 434 21 475 23
41 2 89 4 105 5 27 1 34 -5 67 -63z"/>
<path d="M2080 4468 c-11 -18 -34 -78 -51 -133 -17 -55 -78 -246 -136 -425
-90 -279 -153 -503 -153 -547 0 -7 7 -13 15 -13 23 0 40 45 212 560 127 378
156 476 157 524 1 70 -14 82 -44 34z"/>
<path d="M1490 4342 c-77 -77 -49 -202 45 -202 57 0 119 112 96 172 -23 61
-94 76 -141 30z"/>
<path d="M919 4311 c-30 -30 -39 -46 -39 -73 0 -87 83 -117 146 -54 29 29 34
41 34 79 0 37 -5 49 -26 66 -40 31 -71 27 -115 -18z"/>
<path d="M1190 4113 c-48 -18 -90 -83 -90 -140 0 -72 56 -113 118 -87 84 35
98 180 21 220 -16 8 -29 14 -31 13 -2 0 -10 -3 -18 -6z"/>
<path d="M2246 3971 c-33 -37 5 -126 64 -151 36 -15 53 -9 75 24 14 21 15 31
6 58 -27 77 -105 114 -145 69z"/>
<path d="M1391 3791 c-39 -41 -56 -103 -39 -139 35 -72 123 -59 159 24 24 53
20 111 -8 131 -31 23 -82 16 -112 -16z"/>
<path d="M763 3788 c-49 -54 -58 -126 -22 -172 59 -76 181 25 155 129 -15 61
-93 86 -133 43z"/>
<path d="M2110 3700 c-51 -51 8 -170 84 -170 41 0 56 16 56 57 0 42 -21 85
-56 112 -33 26 -58 27 -84 1z"/>
<path d="M2415 3653 c-25 -24 -14 -88 22 -125 22 -23 35 -28 63 -26 60 5 67
74 14 137 -29 35 -72 41 -99 14z"/>
<path d="M1970 3398 c-44 -47 -12 -146 57 -174 34 -14 38 -14 62 4 48 35 37
118 -21 167 -36 31 -71 32 -98 3z"/>
<path d="M2302 3378 c-16 -16 -15 -73 2 -107 15 -28 53 -51 85 -51 25 0 51 32
51 61 0 67 -98 137 -138 97z"/>
<path d="M1480 3327 c-3 -3 -129 -12 -280 -21 -319 -19 -771 -54 -809 -62 -51
-11 -61 -16 -56 -24 15 -24 150 -21 865 15 319 16 437 27 472 46 18 10 19 13
5 26 -10 11 -43 17 -104 20 -48 3 -90 3 -93 0z"/>
<path d="M1722 3281 c-11 -6 0 -36 48 -131 34 -67 60 -123 58 -124 -2 -2 -67
-8 -146 -14 -147 -12 -167 -16 -156 -34 7 -10 152 -6 279 9 50 5 50 5 67 -29
l16 -35 -98 -6 c-54 -3 -107 -10 -117 -17 -14 -8 10 -10 109 -7 l126 4 11 -25
c7 -13 10 -26 9 -27 -2 -1 -70 -7 -152 -13 -142 -11 -183 -20 -156 -37 6 -4
80 -3 163 1 84 5 156 8 162 9 5 0 46 -66 90 -146 133 -242 188 -329 207 -329
26 0 30 16 14 55 -14 33 -13 38 9 89 28 64 97 268 92 273 -11 11 -99 -151
-127 -232 l-17 -50 -17 33 c-17 32 -16 33 24 115 45 92 64 161 38 140 -13 -11
-52 -91 -84 -171 -9 -23 -10 -22 -32 17 l-23 40 24 38 c13 21 46 80 73 131 40
76 54 94 81 103 60 19 64 95 8 155 -39 41 -67 43 -102 8 -22 -22 -25 -32 -20
-71 3 -30 13 -54 29 -70 l25 -25 -63 -106 c-35 -59 -64 -110 -64 -114 0 -16
-17 -7 -27 15 -9 18 -5 33 24 85 19 35 33 66 30 68 -11 11 -36 -11 -59 -52
l-25 -46 -21 33 -21 33 25 41 c31 49 62 117 70 153 l6 27 -21 -20 c-12 -12
-38 -53 -59 -93 l-38 -72 -49 87 c-66 119 -184 315 -198 330 -7 7 -18 9 -25 4z"/>
<path d="M1567 3080 c-64 -8 -92 -25 -63 -36 24 -9 168 1 236 17 l55 13 -40 7
c-48 9 -110 9 -188 -1z"/>
<path d="M800 3000 c-43 -10 -80 -52 -80 -89 0 -60 68 -104 137 -87 37 10 93
69 93 99 0 28 -44 77 -71 77 -9 0 -23 2 -31 4 -7 2 -29 0 -48 -4z"/>
<path d="M1162 2794 c-58 -26 -63 -101 -8 -139 51 -37 166 -5 180 49 8 31 -15
80 -43 96 -27 14 -90 11 -129 -6z"/>
<path d="M1634 2630 c-37 -15 -66 -61 -60 -94 19 -91 150 -115 191 -35 29 55
14 102 -40 125 -38 16 -60 17 -91 4z"/>
<path d="M1157 2453 c-14 -14 -6 -23 21 -23 45 0 102 12 102 21 0 10 -113 12
-123 2z"/>
<path d="M1308 2390 c-98 -12 -132 -20 -121 -31 6 -6 53 -6 124 1 128 12 159
18 159 31 0 10 -66 10 -162 -1z"/>
<path d="M2932 3017 c-5 -6 -62 -133 -127 -282 -152 -350 -321 -725 -379 -844
-25 -52 -46 -102 -46 -112 0 -9 59 -176 131 -370 72 -195 162 -442 201 -549
39 -107 76 -200 82 -207 13 -15 150 -33 631 -83 204 -22 474 -51 600 -65 127
-13 237 -25 245 -25 21 0 63 81 204 386 63 138 163 352 222 475 59 123 131
280 159 348 l53 124 -40 96 c-121 291 -420 935 -448 965 -14 14 -41 20 -131
27 -63 4 -262 24 -444 43 -282 30 -421 43 -846 81 -38 3 -60 0 -67 -8z m418
-78 c124 -11 379 -35 567 -54 188 -19 364 -35 390 -35 27 0 58 -7 69 -15 20
-13 60 -83 52 -89 -1 -2 -42 1 -90 7 -48 5 -95 6 -104 3 -34 -13 3 -26 108
-38 l106 -12 96 -195 c84 -175 204 -430 242 -518 l14 -32 -120 6 c-82 4 -120
3 -120 -5 0 -14 85 -32 183 -39 l78 -6 20 -39 c11 -22 19 -41 17 -43 -2 -1
-32 1 -68 6 -36 4 -182 17 -325 29 -211 17 -564 53 -942 95 -33 4 -54 2 -58
-5 -11 -17 -6 -19 102 -40 164 -32 890 -116 1176 -136 53 -4 97 -9 97 -13 -1
-21 -23 -30 -80 -33 -76 -4 -83 -22 -10 -26 47 -3 62 -13 40 -27 -6 -3 -73 -1
-150 6 -135 11 -183 8 -164 -11 5 -5 56 -14 114 -19 180 -19 180 -19 169 -44
-9 -21 -15 -22 -116 -19 -114 4 -137 -11 -36 -22 123 -15 123 -14 111 -47
l-10 -30 -74 7 c-50 5 -74 3 -74 -4 0 -10 14 -14 92 -28 37 -6 37 -6 23 -34
-14 -27 -16 -28 -81 -22 -54 4 -66 2 -62 -9 3 -8 27 -18 56 -23 29 -5 52 -12
52 -17 0 -14 -70 -168 -169 -374 l-97 -200 -65 3 c-59 2 -62 1 -45 -13 11 -8
35 -18 53 -21 25 -5 33 -11 29 -21 -3 -8 -6 -19 -6 -24 0 -6 -26 -7 -65 -3
-44 5 -65 3 -65 -4 0 -10 59 -32 88 -32 14 0 16 -19 4 -37 -6 -10 -40 -10
-156 -2 -99 7 -151 8 -158 1 -7 -7 -1 -12 19 -16 51 -11 177 -25 226 -26 26 0
47 -2 47 -4 0 -1 -5 -17 -11 -35 -8 -22 -16 -30 -28 -27 -36 11 -255 37 -596
71 -198 19 -457 47 -575 60 -118 14 -216 25 -217 25 -2 0 4 14 12 31 11 21 21
28 33 25 101 -31 247 -46 240 -23 -5 15 -56 30 -160 48 l-77 14 19 42 c18 40
20 42 47 33 36 -13 181 -40 211 -40 12 0 22 5 22 10 0 16 -46 30 -150 48 -52
8 -96 16 -98 17 -2 2 7 23 20 49 14 30 27 45 36 41 27 -10 168 -44 192 -45 41
-3 60 -1 60 8 0 15 -43 29 -147 47 -57 10 -103 22 -103 27 0 7 37 87 45 96 1
1 53 -11 116 -28 112 -29 189 -38 189 -22 0 5 -12 14 -27 21 -31 14 -204 51
-239 51 -29 0 -30 8 -7 55 19 40 14 40 125 14 32 -7 60 -10 64 -7 15 15 -11
28 -81 39 -41 7 -75 17 -75 21 0 5 7 23 16 39 11 22 20 29 32 24 28 -10 153
-24 217 -24 l60 1 -33 14 c-19 8 -82 20 -140 26 -59 6 -108 13 -110 14 -2 1 8
25 22 53 l26 50 67 -5 c62 -5 66 -4 49 10 -10 8 -38 18 -62 22 l-43 6 25 50
c24 48 27 50 57 44 80 -16 107 -18 107 -8 0 11 -39 25 -97 37 l-32 6 22 45
c15 32 26 43 36 39 28 -11 139 -18 158 -10 16 6 14 9 -12 21 -16 7 -49 13 -72
14 -71 0 -76 5 -51 53 11 23 22 43 23 45 2 2 39 -6 83 -17 84 -22 172 -28 172
-12 0 13 -82 38 -164 50 -37 5 -71 12 -73 15 -3 3 2 24 11 46 17 43 14 60 -9
60 -18 0 -54 -61 -100 -170 -87 -205 -318 -710 -325 -710 -4 0 -10 10 -14 23
-7 27 -45 91 -51 85 -5 -5 18 -89 36 -133 10 -26 9 -36 -8 -70 l-20 -39 -17
55 c-29 91 -38 109 -53 109 -20 0 -14 -31 23 -131 25 -68 27 -78 15 -108 -8
-18 -17 -28 -20 -24 -4 4 -17 42 -30 83 -30 96 -61 170 -72 170 -19 0 -7 -64
32 -172 22 -62 43 -120 45 -128 3 -9 0 -29 -6 -45 -9 -24 -13 -27 -20 -15 -23
43 -370 997 -370 1019 0 14 49 134 109 266 60 132 166 371 236 530 70 160 137
312 149 340 l22 49 27 -71 c42 -115 327 -774 354 -821 27 -46 56 -53 61 -15 3
22 5 22 116 16 80 -4 115 -3 120 6 12 19 -43 33 -151 39 l-102 5 -10 30 c-6
16 -11 31 -11 31 0 1 47 0 105 -2 73 -3 105 -1 105 7 0 13 8 12 -119 20 l-103
6 -48 105 c-26 58 -102 224 -169 370 -67 146 -125 271 -128 278 -4 11 7 12 53
8 33 -4 160 -15 284 -27z"/>
<path d="M3488 2803 c-39 -45 -27 -150 22 -203 22 -24 37 -30 67 -30 55 0 77
26 75 88 -1 58 -12 89 -47 130 -21 26 -34 32 -64 32 -24 0 -44 -7 -53 -17z"/>
<path d="M3895 2555 c-45 -44 -28 -152 32 -205 29 -26 42 -31 67 -26 65 13 85
88 47 172 -38 83 -98 108 -146 59z"/>
<path d="M2900 2400 c-56 -56 10 -185 85 -166 70 18 44 147 -35 175 -26 9 -34
7 -50 -9z"/>
<path d="M4293 2340 c-12 -5 -26 -18 -32 -29 -28 -51 1 -171 50 -205 54 -38
129 0 129 65 0 108 -78 198 -147 169z"/>
<path d="M2740 2101 c-28 -53 3 -141 57 -162 52 -19 93 35 73 97 -22 67 -106
108 -130 65z"/>
<path d="M3060 2024 c-23 -59 -1 -123 51 -149 28 -15 33 -15 55 -1 13 9 27 28
30 41 20 80 -109 182 -136 109z"/>
<path d="M2585 1850 c-19 -31 -24 -74 -11 -105 15 -36 60 -75 86 -75 45 0 65
73 35 130 -23 44 -94 76 -110 50z"/>
<path d="M2911 1736 c-23 -28 -24 -88 -2 -124 54 -84 151 -51 127 43 -15 60
-98 114 -125 81z"/>
<path d="M3604 1632 c-50 -40 -70 -134 -38 -180 45 -65 164 24 164 123 0 66
-74 100 -126 57z"/>
<path d="M4210 1502 c-47 -47 -61 -139 -28 -179 6 -7 25 -13 43 -13 44 0 89
39 111 95 14 38 15 49 4 75 -24 57 -84 67 -130 22z"/>
<path d="M2740 1471 c-35 -67 16 -166 82 -159 68 6 72 98 7 153 -36 30 -74 32
-89 6z"/>
<path d="M3874 1324 c-37 -18 -62 -59 -70 -116 -5 -35 -2 -48 16 -70 12 -17
31 -28 45 -28 29 0 80 42 101 83 45 86 -13 170 -92 131z"/>
<path d="M3440 1062 c-40 -40 -56 -104 -38 -151 12 -31 19 -36 49 -39 93 -8
168 153 96 203 -34 24 -75 19 -107 -13z"/>
<path d="M4072 965 c-55 -24 -89 -124 -61 -178 24 -45 63 -49 109 -11 103 87
65 238 -48 189z"/>
<path d="M3200 721 c0 -12 22 -19 103 -37 82 -17 166 -19 151 -4 -12 12 -184
50 -226 50 -16 0 -28 -4 -28 -9z"/>
</g>
</svg>
